<svg xmlns="http://www.w3.org/2000/svg" version="1.1" xmlns:xlink="http://www.w3.org/1999/xlink" xmlns:svgjs="http://svgjs.dev/svgjs" width="1500" height="500" viewBox="0 0 1500 500"><g transform="matrix(1,0,0,1,-0.9090909090909918,-0.6568241673774935)"><svg viewBox="0 0 396 132" data-background-color="#f9f9f9" preserveAspectRatio="xMidYMid meet" height="500" width="1500" xmlns="http://www.w3.org/2000/svg" xmlns:xlink="http://www.w3.org/1999/xlink"><g id="tight-bounds" transform="matrix(1,0,0,1,0.2400000000000091,0.17340158018765806)"><svg viewBox="0 0 395.52 131.65319683962468" height="131.65319683962468" width="395.52"><g><svg viewBox="0 0 665.8849189734849 221.64714378578515" height="131.65319683962468" width="395.52"><g transform="matrix(1,0,0,1,270.36491897348486,41.31292699087342)"><svg viewBox="0 0 395.52 139.0212898040383" height="139.0212898040383" width="395.52"><g id="textblocktransform"><svg viewBox="0 0 395.52 139.0212898040383" height="139.0212898040383" width="395.52" id="textblock"><g><svg viewBox="0 0 395.52 103.18239716807241" height="103.18239716807241" width="395.52"><g transform="matrix(1,0,0,1,0,0)"><svg width="395.52" viewBox="3.74 -35.51044921875 137.98 36.00044921875" height="103.18239716807241" data-palette-color="#2ecc40"><g class="wordmark-text-0" data-fill-palette-color="primary" id="text-0"><path d="M10.08-35.01L10.08-20.7 32.37-20.7 32.37-35.01 38.72-35.01 38.72 0 32.37 0 32.37-14.31 10.08-14.31 10.08 0 3.74 0 3.74-35.01 10.08-35.01ZM86.89-32.3L86.89 0 80.49 0 80.49-20.85 69.24-1.05Q68.82-0.29 68.08 0.1 67.33 0.49 66.48 0.49L66.48 0.49Q65.65 0.49 64.93 0.1 64.21-0.29 63.79-1.05L63.79-1.05 52.49-20.85 52.49 0 46.14 0 46.14-32.3Q46.14-33.4 46.79-34.25 47.43-35.11 48.48-35.4L48.48-35.4Q49-35.52 49.51-35.49 50.02-35.45 50.5-35.27 50.97-35.08 51.36-34.75 51.76-34.42 52.02-33.96L52.02-33.96 66.48-8.84 80.93-33.96Q81.49-34.89 82.48-35.28 83.47-35.67 84.54-35.4L84.54-35.4Q85.57-35.11 86.23-34.25 86.89-33.4 86.89-32.3L86.89-32.3ZM100.65-35.01L100.65 0 94.31 0 94.31-35.01 100.65-35.01ZM141.72-10.3L141.72-10.3Q141.72-8.42 141.24-6.92 140.76-5.42 139.98-4.27 139.2-3.13 138.15-2.32 137.1-1.51 135.98-1 134.86-0.49 133.7-0.24 132.54 0 131.51 0L131.51 0 107.02 0 107.02-6.35 131.51-6.35Q133.34-6.35 134.36-7.42 135.37-8.5 135.37-10.3L135.37-10.3Q135.37-11.18 135.1-11.91 134.83-12.65 134.33-13.18 133.83-13.72 133.11-14.01 132.39-14.31 131.51-14.31L131.51-14.31 116.91-14.31Q115.37-14.31 113.59-14.86 111.81-15.41 110.28-16.63 108.76-17.85 107.74-19.82 106.73-21.8 106.73-24.66L106.73-24.66Q106.73-27.51 107.74-29.48 108.76-31.45 110.28-32.68 111.81-33.91 113.59-34.46 115.37-35.01 116.91-35.01L116.91-35.01 138.52-35.01 138.52-28.66 116.91-28.66Q115.1-28.66 114.09-27.56 113.08-26.46 113.08-24.66L113.08-24.66Q113.08-22.83 114.09-21.77 115.1-20.7 116.91-20.7L116.91-20.7 131.51-20.7 131.56-20.7Q132.59-20.68 133.73-20.42 134.88-20.17 136.02-19.63 137.15-19.09 138.18-18.27 139.2-17.46 139.99-16.31 140.79-15.16 141.25-13.67 141.72-12.18 141.72-10.3Z" fill="#2ecc40" data-fill-palette-color="primary"></path></g></svg></g></svg></g><g transform="matrix(1,0,0,1,0,127.54128476192227)"><svg viewBox="0 0 232.209792 11.480005042116016" height="11.480005042116016" width="232.209792"><g transform="matrix(1,0,0,1,0,0)"><svg width="232.209792" viewBox="4.1 -33.4 880.81 43.55" height="11.480005042116016" data-palette-color="#3d9970"><path d="M21.35-30.65L26.5-30.65 26.5 0 21.35 0 21.35-14.05 9.2-14.05 9.2 0 4.1 0 4.1-30.65 9.2-30.65 9.2-16.6 21.35-16.6 21.35-30.65ZM43.65 0.6Q37.6 0.6 35.22-2.88 32.85-6.35 32.85-12L32.85-12Q32.85-17.7 35.22-21.15 37.6-24.6 43.65-24.6L43.65-24.6Q49.65-24.6 52.05-21.13 54.45-17.65 54.45-12L54.45-12Q54.45 0.6 43.65 0.6L43.65 0.6ZM43.65-1.9Q46.95-1.9 48.17-4.55 49.4-7.2 49.4-12L49.4-12Q49.4-16.85 48.2-19.48 47-22.1 43.65-22.1L43.65-22.1Q40.3-22.1 39.1-19.5 37.9-16.9 37.9-12L37.9-12Q37.9-7.15 39.1-4.53 40.3-1.9 43.65-1.9L43.65-1.9ZM70.5-13.8Q74.2-12.8 75.87-11.25 77.55-9.7 77.55-6.75L77.55-6.75Q77.55-3.35 75.17-1.38 72.8 0.6 68.45 0.6L68.45 0.6Q63.75 0.6 61.45-1.33 59.15-3.25 58.65-6.9L58.65-6.9 62.8-7.4Q63.05-4.8 64.45-3.35 65.85-1.9 68.45-1.9L68.45-1.9Q70.55-1.9 71.9-3.05 73.25-4.2 73.25-5.7L73.25-5.7Q73.25-7.2 72.05-8.1 70.85-9 68.1-9.7L68.1-9.7 65.7-10.4Q62.5-11.25 60.8-12.9 59.1-14.55 59.1-17.55L59.1-17.55Q59.1-20.8 61.5-22.7 63.9-24.6 68.15-24.6L68.15-24.6Q72.6-24.6 74.75-22.73 76.9-20.85 77.35-17.25L77.35-17.25 73.2-16.9Q72.95-19.35 71.67-20.73 70.4-22.1 68.15-22.1L68.15-22.1Q65.8-22.1 64.6-21.15 63.4-20.2 63.4-18.65L63.4-18.65Q63.4-16.95 64.57-16.05 65.75-15.15 68.3-14.45L68.3-14.45 70.5-13.8ZM94.64-24.6Q99.94-24.6 102.04-21.15 104.14-17.7 104.14-12L104.14-12Q104.14-6.35 101.99-2.88 99.84 0.6 94.39 0.6L94.39 0.6Q91.54 0.6 88.64-0.5L88.64-0.5 88.64 9.5 83.59 10.15 83.59-24 85.84-24 87.69-21.95Q89.19-23.15 91.02-23.88 92.84-24.6 94.64-24.6L94.64-24.6ZM93.19-1.9Q96.39-1.9 97.77-4.55 99.14-7.2 99.14-12L99.14-12Q99.14-16.35 97.77-19.07 96.39-21.8 93.34-21.8L93.34-21.8Q90.99-21.8 88.64-20.15L88.64-20.15 88.64-2.75Q90.64-1.9 93.19-1.9L93.19-1.9ZM113.09-27.15Q111.79-27.15 110.89-28.08 109.99-29 109.99-30.25L109.99-30.25Q109.99-31.55 110.89-32.48 111.79-33.4 113.09-33.4L113.09-33.4Q114.39-33.4 115.32-32.48 116.24-31.55 116.24-30.25L116.24-30.25Q116.24-29 115.29-28.08 114.34-27.15 113.09-27.15L113.09-27.15ZM115.49-24L115.49 0 110.54 0 110.54-24 115.49-24ZM134.34-3.15L134.99-0.85Q132.34 0.6 129.89 0.6L129.89 0.6Q127.39 0.6 126.16-0.33 124.94-1.25 124.64-2.55 124.34-3.85 124.34-5.75L124.34-5.75 124.34-21.45 120.44-21.45 120.44-24 124.34-24 124.34-27.9 129.44-29.8 129.44-24 134.54-24 134.54-21.45 129.44-21.45 129.44-5.15Q129.44-3.5 129.86-2.88 130.29-2.25 131.29-2.25L131.29-2.25Q132.69-2.25 134.34-3.15L134.34-3.15ZM143.74 0.6Q140.69 0.6 138.91-1.07 137.14-2.75 137.14-5.65L137.14-5.65Q137.14-8.75 139.36-10.53 141.59-12.3 146.14-13.1L146.14-13.1 151.69-14 151.69-16.45Q151.69-22.1 147.39-22.1L147.39-22.1Q144.84-22.1 143.69-20.65 142.54-19.2 142.39-16.2L142.39-16.2 138.19-16.65Q138.49-20.6 140.59-22.6 142.69-24.6 147.49-24.6L147.49-24.6Q152.14-24.6 154.44-22.53 156.74-20.45 156.74-16.25L156.74-16.25 156.74 0 153.54 0 151.99-3.5Q150.44-1.5 148.29-0.45 146.14 0.6 143.74 0.6L143.74 0.6ZM145.54-2.05Q147.24-2.05 148.91-3.05 150.59-4.05 151.69-5.4L151.69-5.4 151.69-11.95 146.79-11Q144.29-10.45 143.01-9.25 141.74-8.05 141.74-6L141.74-6Q141.74-4.2 142.76-3.13 143.79-2.05 145.54-2.05L145.54-2.05ZM169.48-32.35L169.48 0 164.43 0 164.43-31.7 169.48-32.35ZM215.78-24.6Q219.63-24.6 221.5-22.6 223.38-20.6 223.38-16.95L223.38-16.95 223.38 0 218.38 0 218.38-17.1Q218.38-19.4 217.33-20.6 216.28-21.8 214.28-21.8L214.28-21.8Q211.28-21.8 208.73-19.6L208.73-19.6Q209.08-18.2 209.08-16.95L209.08-16.95 209.08 0 203.98 0 203.98-17.1Q203.98-21.8 199.78-21.8L199.78-21.8Q196.93-21.8 194.48-19.7L194.48-19.7 194.48 0 189.43 0 189.43-24 191.63-24 193.58-21.55Q195.18-22.9 197.18-23.75 199.18-24.6 201.33-24.6L201.33-24.6Q206.13-24.6 207.98-21.5L207.98-21.5Q209.53-22.85 211.55-23.73 213.58-24.6 215.78-24.6L215.78-24.6ZM236.08 0.6Q233.03 0.6 231.25-1.07 229.48-2.75 229.48-5.65L229.48-5.65Q229.48-8.75 231.7-10.53 233.93-12.3 238.48-13.1L238.48-13.1 244.03-14 244.03-16.45Q244.03-22.1 239.73-22.1L239.73-22.1Q237.18-22.1 236.03-20.65 234.88-19.2 234.73-16.2L234.73-16.2 230.53-16.65Q230.83-20.6 232.93-22.6 235.03-24.6 239.83-24.6L239.83-24.6Q244.48-24.6 246.78-22.53 249.08-20.45 249.08-16.25L249.08-16.25 249.08 0 245.88 0 244.33-3.5Q242.78-1.5 240.63-0.45 238.48 0.6 236.08 0.6L236.08 0.6ZM237.88-2.05Q239.58-2.05 241.25-3.05 242.93-4.05 244.03-5.4L244.03-5.4 244.03-11.95 239.13-11Q236.63-10.45 235.35-9.25 234.08-8.05 234.08-6L234.08-6Q234.08-4.2 235.1-3.13 236.13-2.05 237.88-2.05L237.88-2.05ZM269.12-24.6Q276.82-24.6 276.82-16.95L276.82-16.95 276.82 0 271.77 0 271.77-16.55Q271.77-19.25 270.82-20.53 269.87-21.8 267.82-21.8L267.82-21.8Q264.77-21.8 261.82-19.5L261.82-19.5 261.82 0 256.77 0 256.77-24 258.97-24 260.97-21.5Q262.77-22.9 264.95-23.75 267.12-24.6 269.12-24.6L269.12-24.6ZM289.37 0.6Q286.32 0.6 284.55-1.07 282.77-2.75 282.77-5.65L282.77-5.65Q282.77-8.75 285-10.53 287.22-12.3 291.77-13.1L291.77-13.1 297.32-14 297.32-16.45Q297.32-22.1 293.02-22.1L293.02-22.1Q290.47-22.1 289.32-20.65 288.17-19.2 288.02-16.2L288.02-16.2 283.82-16.65Q284.12-20.6 286.22-22.6 288.32-24.6 293.12-24.6L293.12-24.6Q297.77-24.6 300.07-22.53 302.37-20.45 302.37-16.25L302.37-16.25 302.37 0 299.17 0 297.62-3.5Q296.07-1.5 293.92-0.45 291.77 0.6 289.37 0.6L289.37 0.6ZM291.17-2.05Q292.87-2.05 294.55-3.05 296.22-4.05 297.32-5.4L297.32-5.4 297.32-11.95 292.42-11Q289.92-10.45 288.65-9.25 287.37-8.05 287.37-6L287.37-6Q287.37-4.2 288.4-3.13 289.42-2.05 291.17-2.05L291.17-2.05ZM329.62-24L329.62-21.9 326.12-21.9Q328.12-19.55 328.12-15.8L328.12-15.8Q328.12-12.1 326.09-9.5 324.07-6.9 319.17-6.9L319.17-6.9Q315.82-6.9 313.62-8L313.62-8 312.27-6.7Q311.07-5.7 311.07-4.35L311.07-4.35Q311.07-3.6 311.64-2.98 312.22-2.35 313.27-2.35L313.27-2.35 322.62-2.35Q325.82-2.35 327.67-0.7 329.52 0.95 329.52 3.45L329.52 3.45Q329.52 7.25 326.39 8.7 323.27 10.15 318.17 10.15L318.17 10.15Q313.27 10.15 310.54 8.8 307.82 7.45 307.82 4.2L307.82 4.2Q307.82 2.9 308.69 1.65 309.57 0.4 310.97-0.3L310.97-0.3Q309.67-0.75 308.89-1.73 308.12-2.7 308.12-3.95L308.12-3.95Q308.12-5.05 308.52-6.03 308.92-7 309.97-8L309.97-8 311.52-9.5Q309.32-11.7 309.32-15.8L309.32-15.8Q309.32-19.5 311.44-22.05 313.57-24.6 318.72-24.6L318.72-24.6Q321.17-24.6 322.82-24L322.82-24 329.62-24ZM318.72-9.35Q321.22-9.35 322.24-11 323.27-12.65 323.27-15.8L323.27-15.8Q323.27-18.9 322.24-20.53 321.22-22.15 318.72-22.15L318.72-22.15Q316.22-22.15 315.22-20.53 314.22-18.9 314.22-15.8L314.22-15.8Q314.22-12.65 315.22-11 316.22-9.35 318.72-9.35L318.72-9.35ZM314.07 0Q313.22 0.7 312.69 1.78 312.17 2.85 312.17 4.05L312.17 4.05Q312.17 6 313.69 6.83 315.22 7.65 318.17 7.65L318.17 7.65Q321.97 7.65 323.59 6.73 325.22 5.8 325.22 3.45L325.22 3.45Q325.22 1.8 324.02 0.9 322.82 0 321.02 0L321.02 0 314.07 0ZM354.37-11.7L338.87-11.7 338.87-11.6Q338.87-6.3 340.14-4.1 341.42-1.9 344.52-1.9L344.52-1.9Q349.62-1.9 349.87-7.15L349.87-7.15 354.02-6.95Q353.67-3.45 351.47-1.43 349.27 0.6 344.37 0.6L344.37 0.6Q338.72 0.6 336.27-2.53 333.82-5.65 333.82-12L333.82-12Q333.82-17.7 336.14-21.15 338.47-24.6 344.32-24.6L344.32-24.6Q349.97-24.6 352.17-21.18 354.37-17.75 354.37-12.2L354.37-12.2 354.37-11.7ZM344.22-22.1Q341.57-22.1 340.37-20.15 339.17-18.2 338.92-14.2L338.92-14.2 349.47-14.2Q349.32-18.1 348.14-20.1 346.97-22.1 344.22-22.1L344.22-22.1ZM387.06-24.6Q390.91-24.6 392.79-22.6 394.66-20.6 394.66-16.95L394.66-16.95 394.66 0 389.66 0 389.66-17.1Q389.66-19.4 388.61-20.6 387.56-21.8 385.56-21.8L385.56-21.8Q382.56-21.8 380.01-19.6L380.01-19.6Q380.36-18.2 380.36-16.95L380.36-16.95 380.36 0 375.26 0 375.26-17.1Q375.26-21.8 371.06-21.8L371.06-21.8Q368.21-21.8 365.76-19.7L365.76-19.7 365.76 0 360.71 0 360.71-24 362.91-24 364.86-21.55Q366.46-22.9 368.46-23.75 370.46-24.6 372.61-24.6L372.61-24.6Q377.41-24.6 379.26-21.5L379.26-21.5Q380.81-22.85 382.84-23.73 384.86-24.6 387.06-24.6L387.06-24.6ZM421.26-11.7L405.76-11.7 405.76-11.6Q405.76-6.3 407.04-4.1 408.31-1.9 411.41-1.9L411.41-1.9Q416.51-1.9 416.76-7.15L416.76-7.15 420.91-6.95Q420.56-3.45 418.36-1.43 416.16 0.6 411.26 0.6L411.26 0.6Q405.61 0.6 403.16-2.53 400.71-5.65 400.71-12L400.71-12Q400.71-17.7 403.04-21.15 405.36-24.6 411.21-24.6L411.21-24.6Q416.86-24.6 419.06-21.18 421.26-17.75 421.26-12.2L421.26-12.2 421.26-11.7ZM411.11-22.1Q408.46-22.1 407.26-20.15 406.06-18.2 405.81-14.2L405.81-14.2 416.36-14.2Q416.21-18.1 415.04-20.1 413.86-22.1 411.11-22.1L411.11-22.1ZM439.96-24.6Q447.66-24.6 447.66-16.95L447.66-16.95 447.66 0 442.61 0 442.61-16.55Q442.61-19.25 441.66-20.53 440.71-21.8 438.66-21.8L438.66-21.8Q435.61-21.8 432.66-19.5L432.66-19.5 432.66 0 427.61 0 427.61-24 429.81-24 431.81-21.5Q433.61-22.9 435.78-23.75 437.96-24.6 439.96-24.6L439.96-24.6ZM465.96-3.15L466.61-0.85Q463.96 0.6 461.51 0.6L461.51 0.6Q459.01 0.6 457.78-0.33 456.56-1.25 456.26-2.55 455.96-3.85 455.96-5.75L455.96-5.75 455.96-21.45 452.06-21.45 452.06-24 455.96-24 455.96-27.9 461.06-29.8 461.06-24 466.16-24 466.16-21.45 461.06-21.45 461.06-5.15Q461.06-3.5 461.48-2.88 461.91-2.25 462.91-2.25L462.91-2.25Q464.31-2.25 465.96-3.15L465.96-3.15ZM484.75-27.15Q483.45-27.15 482.55-28.08 481.65-29 481.65-30.25L481.65-30.25Q481.65-31.55 482.55-32.48 483.45-33.4 484.75-33.4L484.75-33.4Q486.05-33.4 486.98-32.48 487.9-31.55 487.9-30.25L487.9-30.25Q487.9-29 486.95-28.08 486-27.15 484.75-27.15L484.75-27.15ZM487.15-24L487.15 0 482.2 0 482.2-24 487.15-24ZM507.75-24.6Q515.45-24.6 515.45-16.95L515.45-16.95 515.45 0 510.4 0 510.4-16.55Q510.4-19.25 509.45-20.53 508.5-21.8 506.45-21.8L506.45-21.8Q503.4-21.8 500.45-19.5L500.45-19.5 500.45 0 495.4 0 495.4-24 497.6-24 499.6-21.5Q501.4-22.9 503.57-23.75 505.75-24.6 507.75-24.6L507.75-24.6ZM531.35-33Q532.95-33 534.4-32.52 535.85-32.05 537.35-31.15L537.35-31.15 535.65-27.5Q534.9-28.65 533.85-29.35 532.8-30.05 531.7-30.05L531.7-30.05Q530.3-30.05 529.52-29.13 528.75-28.2 528.75-26.65L528.75-26.65 528.75-24 533.8-24 533.8-21.45 528.75-21.45 528.75 0 523.7 0 523.7-21.45 519.8-21.45 519.8-24 523.7-24 523.7-25.3Q523.7-29.1 525.67-31.05 527.65-33 531.35-33L531.35-33ZM546.69 0.6Q540.64 0.6 538.27-2.88 535.89-6.35 535.89-12L535.89-12Q535.89-17.7 538.27-21.15 540.64-24.6 546.69-24.6L546.69-24.6Q552.69-24.6 555.09-21.13 557.49-17.65 557.49-12L557.49-12Q557.49 0.6 546.69 0.6L546.69 0.6ZM546.69-1.9Q549.99-1.9 551.22-4.55 552.44-7.2 552.44-12L552.44-12Q552.44-16.85 551.24-19.48 550.04-22.1 546.69-22.1L546.69-22.1Q543.34-22.1 542.14-19.5 540.94-16.9 540.94-12L540.94-12Q540.94-7.15 542.14-4.53 543.34-1.9 546.69-1.9L546.69-1.9ZM568.44-19.45Q569.59-21.6 571.66-22.9 573.74-24.2 576.64-24.2L576.64-24.2 576.64-20.5Q568.94-20.5 568.94-14.5L568.94-14.5 568.89-14.5 568.89 0 563.84 0 563.84-24 566.04-24 568.44-19.45ZM607.19-24.6Q611.04-24.6 612.91-22.6 614.79-20.6 614.79-16.95L614.79-16.95 614.79 0 609.79 0 609.79-17.1Q609.79-19.4 608.74-20.6 607.69-21.8 605.69-21.8L605.69-21.8Q602.69-21.8 600.14-19.6L600.14-19.6Q600.49-18.2 600.49-16.95L600.49-16.95 600.49 0 595.39 0 595.39-17.1Q595.39-21.8 591.19-21.8L591.19-21.8Q588.34-21.8 585.89-19.7L585.89-19.7 585.89 0 580.84 0 580.84-24 583.04-24 584.99-21.55Q586.59-22.9 588.59-23.75 590.59-24.6 592.74-24.6L592.74-24.6Q597.54-24.6 599.39-21.5L599.39-21.5Q600.94-22.85 602.96-23.73 604.99-24.6 607.19-24.6L607.19-24.6ZM627.48 0.6Q624.43 0.6 622.66-1.07 620.88-2.75 620.88-5.65L620.88-5.65Q620.88-8.75 623.11-10.53 625.33-12.3 629.88-13.1L629.88-13.1 635.43-14 635.43-16.45Q635.43-22.1 631.13-22.1L631.13-22.1Q628.58-22.1 627.43-20.65 626.28-19.2 626.13-16.2L626.13-16.2 621.93-16.65Q622.23-20.6 624.33-22.6 626.43-24.6 631.23-24.6L631.23-24.6Q635.88-24.6 638.18-22.53 640.48-20.45 640.48-16.25L640.48-16.25 640.48 0 637.28 0 635.73-3.5Q634.18-1.5 632.03-0.45 629.88 0.6 627.48 0.6L627.48 0.6ZM629.28-2.05Q630.98-2.05 632.66-3.05 634.33-4.05 635.43-5.4L635.43-5.4 635.43-11.95 630.53-11Q628.03-10.45 626.76-9.25 625.48-8.05 625.48-6L625.48-6Q625.48-4.2 626.51-3.13 627.53-2.05 629.28-2.05L629.28-2.05ZM658.78-3.15L659.43-0.85Q656.78 0.6 654.33 0.6L654.33 0.6Q651.83 0.6 650.61-0.33 649.38-1.25 649.08-2.55 648.78-3.85 648.78-5.75L648.78-5.75 648.78-21.45 644.88-21.45 644.88-24 648.78-24 648.78-27.9 653.88-29.8 653.88-24 658.98-24 658.98-21.45 653.88-21.45 653.88-5.15Q653.88-3.5 654.31-2.88 654.73-2.25 655.73-2.25L655.73-2.25Q657.13-2.25 658.78-3.15L658.78-3.15ZM665.83-27.15Q664.53-27.15 663.63-28.08 662.73-29 662.73-30.25L662.73-30.25Q662.73-31.55 663.63-32.48 664.53-33.4 665.83-33.4L665.83-33.4Q667.13-33.4 668.05-32.48 668.98-31.55 668.98-30.25L668.98-30.25Q668.98-29 668.03-28.08 667.08-27.15 665.83-27.15L665.83-27.15ZM668.23-24L668.23 0 663.28 0 663.28-24 668.23-24ZM685.48 0.6Q679.43 0.6 677.05-2.88 674.68-6.35 674.68-12L674.68-12Q674.68-17.7 677.05-21.15 679.43-24.6 685.48-24.6L685.48-24.6Q691.48-24.6 693.88-21.13 696.28-17.65 696.28-12L696.28-12Q696.28 0.6 685.48 0.6L685.48 0.6ZM685.48-1.9Q688.78-1.9 690-4.55 691.23-7.2 691.23-12L691.23-12Q691.23-16.85 690.03-19.48 688.83-22.1 685.48-22.1L685.48-22.1Q682.13-22.1 680.93-19.5 679.73-16.9 679.73-12L679.73-12Q679.73-7.15 680.93-4.53 682.13-1.9 685.48-1.9L685.48-1.9ZM714.97-24.6Q722.67-24.6 722.67-16.95L722.67-16.95 722.67 0 717.62 0 717.62-16.55Q717.62-19.25 716.67-20.53 715.72-21.8 713.67-21.8L713.67-21.8Q710.62-21.8 707.67-19.5L707.67-19.5 707.67 0 702.62 0 702.62-24 704.82-24 706.82-21.5Q708.62-22.9 710.8-23.75 712.97-24.6 714.97-24.6L714.97-24.6ZM751.82-13.8Q755.52-12.8 757.19-11.25 758.87-9.7 758.87-6.75L758.87-6.75Q758.87-3.35 756.49-1.38 754.12 0.6 749.77 0.6L749.77 0.6Q745.07 0.6 742.77-1.33 740.47-3.25 739.97-6.9L739.97-6.9 744.12-7.4Q744.37-4.8 745.77-3.35 747.17-1.9 749.77-1.9L749.77-1.9Q751.87-1.9 753.22-3.05 754.57-4.2 754.57-5.7L754.57-5.7Q754.57-7.2 753.37-8.1 752.17-9 749.42-9.7L749.42-9.7 747.02-10.4Q743.82-11.25 742.12-12.9 740.42-14.55 740.42-17.55L740.42-17.55Q740.42-20.8 742.82-22.7 745.22-24.6 749.47-24.6L749.47-24.6Q753.92-24.6 756.07-22.73 758.22-20.85 758.67-17.25L758.67-17.25 754.52-16.9Q754.27-19.35 752.99-20.73 751.72-22.1 749.47-22.1L749.47-22.1Q747.12-22.1 745.92-21.15 744.72-20.2 744.72-18.65L744.72-18.65Q744.72-16.95 745.89-16.05 747.07-15.15 749.62-14.45L749.62-14.45 751.82-13.8ZM780.52-24L783.42-24 771.17 10.15 767.07 9.55 771.72 0.95 761.32-24 766.37-24 774.02-5.05 780.52-24ZM797.61-13.8Q801.31-12.8 802.99-11.25 804.66-9.7 804.66-6.75L804.66-6.75Q804.66-3.35 802.29-1.38 799.91 0.6 795.56 0.6L795.56 0.6Q790.86 0.6 788.56-1.33 786.26-3.25 785.76-6.9L785.76-6.9 789.91-7.4Q790.16-4.8 791.56-3.35 792.96-1.9 795.56-1.9L795.56-1.9Q797.66-1.9 799.01-3.05 800.36-4.2 800.36-5.7L800.36-5.7Q800.36-7.2 799.16-8.1 797.96-9 795.21-9.7L795.21-9.7 792.81-10.4Q789.61-11.25 787.91-12.9 786.21-14.55 786.21-17.55L786.21-17.55Q786.21-20.8 788.61-22.7 791.01-24.6 795.26-24.6L795.26-24.6Q799.71-24.6 801.86-22.73 804.01-20.85 804.46-17.25L804.46-17.25 800.31-16.9Q800.06-19.35 798.79-20.73 797.51-22.1 795.26-22.1L795.26-22.1Q792.91-22.1 791.71-21.15 790.51-20.2 790.51-18.65L790.51-18.65Q790.51-16.95 791.69-16.05 792.86-15.15 795.41-14.45L795.41-14.45 797.61-13.8ZM821.31-3.15L821.96-0.85Q819.31 0.6 816.86 0.6L816.86 0.6Q814.36 0.6 813.14-0.33 811.91-1.25 811.61-2.55 811.31-3.85 811.31-5.75L811.31-5.75 811.31-21.45 807.41-21.45 807.41-24 811.31-24 811.31-27.9 816.41-29.8 816.41-24 821.51-24 821.51-21.45 816.41-21.45 816.41-5.15Q816.41-3.5 816.84-2.88 817.26-2.25 818.26-2.25L818.26-2.25Q819.66-2.25 821.31-3.15L821.31-3.15ZM844.61-11.7L829.11-11.7 829.11-11.6Q829.11-6.3 830.38-4.1 831.66-1.9 834.76-1.9L834.76-1.9Q839.86-1.9 840.11-7.15L840.11-7.15 844.26-6.95Q843.91-3.45 841.71-1.43 839.51 0.6 834.61 0.6L834.61 0.6Q828.96 0.6 826.51-2.53 824.06-5.65 824.06-12L824.06-12Q824.06-17.7 826.38-21.15 828.71-24.6 834.56-24.6L834.56-24.6Q840.21-24.6 842.41-21.18 844.61-17.75 844.61-12.2L844.61-12.2 844.61-11.7ZM834.46-22.1Q831.81-22.1 830.61-20.15 829.41-18.2 829.16-14.2L829.16-14.2 839.71-14.2Q839.56-18.1 838.38-20.1 837.21-22.1 834.46-22.1L834.46-22.1ZM877.31-24.6Q881.16-24.6 883.03-22.6 884.91-20.6 884.91-16.95L884.91-16.95 884.91 0 879.91 0 879.91-17.1Q879.91-19.4 878.86-20.6 877.81-21.8 875.81-21.8L875.81-21.8Q872.81-21.8 870.26-19.6L870.26-19.6Q870.61-18.2 870.61-16.95L870.61-16.95 870.61 0 865.51 0 865.51-17.1Q865.51-21.8 861.31-21.8L861.31-21.8Q858.46-21.8 856.01-19.7L856.01-19.7 856.01 0 850.96 0 850.96-24 853.16-24 855.11-21.55Q856.71-22.9 858.71-23.75 860.71-24.6 862.86-24.6L862.86-24.6Q867.66-24.6 869.51-21.5L869.51-21.5Q871.06-22.85 873.08-23.73 875.11-24.6 877.31-24.6L877.31-24.6Z" opacity="1" transform="matrix(1,0,0,1,0,0)" fill="#3d9970" class="slogan-text-1" data-fill-palette-color="secondary" id="text-1"></path></svg></g></svg></g></svg></g></svg></g><g><svg viewBox="0 0 221.64714378578515 221.64714378578515" height="221.64714378578515" width="221.64714378578515"><g><svg></svg></g><g id="icon-0"><svg viewBox="0 0 221.64714378578515 221.64714378578515" height="221.64714378578515" width="221.64714378578515"><g><path d="M0 110.824c0-61.206 49.617-110.824 110.824-110.824 61.206 0 110.824 49.617 110.823 110.824 0 61.206-49.617 110.824-110.823 110.823-61.206 0-110.824-49.617-110.824-110.823zM110.824 212.342c56.067 0 101.518-45.451 101.518-101.518 0-56.067-45.451-101.518-101.518-101.519-56.067 0-101.518 45.451-101.519 101.519 0 56.067 45.451 101.518 101.519 101.518z" data-fill-palette-color="accent" fill="#01ff70" stroke="transparent"></path></g><g transform="matrix(1,0,0,1,51.90701769376672,58.895932782631)"><svg viewBox="0 0 117.83310839825171 103.85527822052315" height="103.85527822052315" width="117.83310839825171"><g><svg xmlns="http://www.w3.org/2000/svg" xmlns:xlink="http://www.w3.org/1999/xlink" version="1.1" x="0" y="0" viewBox="2.9 7.8 84.3 74.3" enable-background="new 0 0 90 90" xml:space="preserve" height="103.85527822052315" width="117.83310839825171" class="icon-dxe-0" data-fill-palette-color="accent" id="dxe-0"><path d="M44.8 22.2C43.2 22.2 41.7 22.8 40.6 23.9L12.3 50.8C11.2 51.9 10.5 53.3 10.5 54.9V82.1H79.5V54.9C79.5 53.4 78.8 51.9 77.7 50.8L49 23.9C47.9 22.8 46.4 22.2 44.8 22.2M15.6 77V54.9C15.6 54.7 15.7 54.6 15.8 54.5L44.1 27.6C44.4 27.3 45.2 27.3 45.5 27.6L74.2 54.5C74.3 54.6 74.4 54.7 74.4 54.9V77z" fill="#01ff70" data-fill-palette-color="accent"></path><path d="M43 17.5C43.9 16.6 45.6 16.6 46.6 17.5L81.7 50.2 87.2 45.9 48 9.1C47.1 8.3 46 7.8 44.8 7.8S42.4 8.3 41.6 9.1L2.9 45.9 8.4 50.2z" fill="#01ff70" data-fill-palette-color="accent"></path><path d="M49.2 40.3H40.9V53H28V61.3H40.8V74.1H49.1V61.4H62V53H49.2zM46.2 58.4V71.2H43.8V58.4H31V56H43.8V43.2H46.2V56H59V58.4z" fill="#01ff70" data-fill-palette-color="accent"></path></svg></g></svg></g></svg></g></svg></g></svg></g><defs></defs></svg><rect width="395.52" height="131.65319683962468" fill="none" stroke="none" visibility="hidden"></rect></g></svg></g></svg>